<mxfile host="app.diagrams.net" modified="2022-03-05T07:49:49.508Z" agent="5.0 (Macintosh; Intel Mac OS X 10_14_6) AppleWebKit/537.36 (KHTML, like Gecko) Chrome/97.0.4692.99 Safari/537.36" etag="7RQiLZ4ZoKouziSFWO3a" version="16.6.4" type="github">
  <diagram id="C5RBs43oDa-KdzZeNtuy" name="Page-1">
    <mxGraphModel dx="2036" dy="791" grid="1" gridSize="10" guides="1" tooltips="1" connect="1" arrows="1" fold="1" page="1" pageScale="1" pageWidth="827" pageHeight="1169" math="1" shadow="0">
      <root>
        <mxCell id="WIyWlLk6GJQsqaUBKTNV-0" />
        <mxCell id="WIyWlLk6GJQsqaUBKTNV-1" parent="WIyWlLk6GJQsqaUBKTNV-0" />
        <mxCell id="xkTSmgE8WvzXra-B7ViK-35" value="" style="group;fontColor=#4D4D4D;" vertex="1" connectable="0" parent="WIyWlLk6GJQsqaUBKTNV-1">
          <mxGeometry x="-200" y="180" width="249.5" height="440" as="geometry" />
        </mxCell>
        <mxCell id="xkTSmgE8WvzXra-B7ViK-36" value="" style="group;fillColor=default;strokeColor=#4D4D4D;container=0;dashed=1;strokeWidth=2;fontColor=#4D4D4D;" vertex="1" connectable="0" parent="xkTSmgE8WvzXra-B7ViK-35">
          <mxGeometry x="-29.5" y="-70" width="279" height="440" as="geometry" />
        </mxCell>
        <mxCell id="xkTSmgE8WvzXra-B7ViK-28" value="" style="shape=image;html=1;verticalAlign=top;verticalLabelPosition=bottom;labelBackgroundColor=#ffffff;imageAspect=0;aspect=fixed;image=https://cdn1.iconfinder.com/data/icons/icons-for-a-site-1/64/advantage_payment_way-128.png;strokeColor=default;strokeWidth=5;fillColor=#000000;fontColor=#4D4D4D;" vertex="1" parent="xkTSmgE8WvzXra-B7ViK-35">
          <mxGeometry x="83" y="4.256926952141072" width="50.80503778337531" height="50.80503778337531" as="geometry" />
        </mxCell>
        <mxCell id="xkTSmgE8WvzXra-B7ViK-29" value="balance checking" style="text;html=1;resizable=0;autosize=1;align=center;verticalAlign=middle;points=[];fillColor=none;strokeColor=none;rounded=0;dashed=1;fontFamily=Times New Roman;fontSize=28;fontColor=#4D4D4D;" vertex="1" parent="xkTSmgE8WvzXra-B7ViK-35">
          <mxGeometry x="5" y="57.86599496221665" width="210" height="40" as="geometry" />
        </mxCell>
        <mxCell id="xkTSmgE8WvzXra-B7ViK-31" value="" style="shape=image;html=1;verticalAlign=top;verticalLabelPosition=bottom;labelBackgroundColor=#ffffff;imageAspect=0;aspect=fixed;image=https://cdn3.iconfinder.com/data/icons/weather-free-2/32/Weather_Free_Outline_rain-cloud-weather-128.png;strokeColor=default;strokeWidth=5;fillColor=#000000;fontColor=#4D4D4D;" vertex="1" parent="xkTSmgE8WvzXra-B7ViK-35">
          <mxGeometry x="85" y="115.08816120906803" width="47.04170165127344" height="47.04170165127344" as="geometry" />
        </mxCell>
        <mxCell id="xkTSmgE8WvzXra-B7ViK-32" value="weather" style="text;html=1;resizable=0;autosize=1;align=center;verticalAlign=middle;points=[];fillColor=none;strokeColor=none;rounded=0;dashed=1;fontFamily=Times New Roman;fontSize=28;fontColor=#4D4D4D;" vertex="1" parent="xkTSmgE8WvzXra-B7ViK-35">
          <mxGeometry x="60" y="170.50377833753154" width="100" height="40" as="geometry" />
        </mxCell>
        <mxCell id="xkTSmgE8WvzXra-B7ViK-34" value="... ..." style="text;html=1;resizable=0;autosize=1;align=center;verticalAlign=middle;points=[];fillColor=none;strokeColor=none;rounded=0;dashed=1;fontFamily=Times New Roman;fontSize=28;fontColor=#4D4D4D;" vertex="1" parent="xkTSmgE8WvzXra-B7ViK-35">
          <mxGeometry x="80" y="213.75314861460964" width="60" height="40" as="geometry" />
        </mxCell>
        <mxCell id="xkTSmgE8WvzXra-B7ViK-44" value="&lt;font style=&quot;font-size: 28px&quot;&gt;Service Request Event&lt;br&gt;&lt;/font&gt;&lt;span&gt;\( r(t) = &amp;lt;t, g&amp;gt;\)&lt;/span&gt;&lt;span style=&quot;font-size: medium&quot;&gt;&lt;/span&gt;" style="text;html=1;resizable=0;autosize=1;align=center;verticalAlign=middle;points=[];fillColor=none;strokeColor=none;rounded=0;dashed=1;fontFamily=Times New Roman;fontSize=28;fontColor=#4D4D4D;" vertex="1" parent="xkTSmgE8WvzXra-B7ViK-35">
          <mxGeometry x="-25" y="262.49370277078094" width="270" height="80" as="geometry" />
        </mxCell>
        <mxCell id="xkTSmgE8WvzXra-B7ViK-27" value="Services" style="text;html=1;resizable=0;autosize=1;align=center;verticalAlign=middle;points=[];fillColor=none;strokeColor=none;rounded=0;dashed=1;fontFamily=Times New Roman;fontSize=28;fontColor=#4D4D4D;" vertex="1" parent="xkTSmgE8WvzXra-B7ViK-35">
          <mxGeometry x="-21" y="-61.201955121084204" width="110" height="40" as="geometry" />
        </mxCell>
        <mxCell id="xkTSmgE8WvzXra-B7ViK-0" value="" style="rounded=0;whiteSpace=wrap;html=1;fontFamily=Times New Roman;fontSize=28;fontColor=#CC0000;strokeWidth=2;dashed=1;strokeColor=#CC0000;" vertex="1" parent="WIyWlLk6GJQsqaUBKTNV-1">
          <mxGeometry x="85" y="111" width="660" height="173" as="geometry" />
        </mxCell>
        <mxCell id="xkTSmgE8WvzXra-B7ViK-1" value="" style="rounded=0;whiteSpace=wrap;html=1;fontFamily=Times New Roman;fontSize=28;fontColor=#66CC00;strokeWidth=2;dashed=1;strokeColor=#66CC00;" vertex="1" parent="WIyWlLk6GJQsqaUBKTNV-1">
          <mxGeometry x="85" y="320" width="660" height="234" as="geometry" />
        </mxCell>
        <mxCell id="xkTSmgE8WvzXra-B7ViK-2" value="" style="group;fontSize=28;" vertex="1" connectable="0" parent="WIyWlLk6GJQsqaUBKTNV-1">
          <mxGeometry x="541" y="350" width="185.5" height="95.5" as="geometry" />
        </mxCell>
        <mxCell id="xkTSmgE8WvzXra-B7ViK-3" value="" style="fontColor=#0066CC;verticalAlign=top;verticalLabelPosition=bottom;labelPosition=center;align=center;html=1;outlineConnect=0;fillColor=#CCCCCC;strokeColor=#4D4D4D;gradientColor=none;gradientDirection=north;strokeWidth=2;shape=mxgraph.networks.server;fontSize=28;" vertex="1" parent="xkTSmgE8WvzXra-B7ViK-2">
          <mxGeometry width="63" height="70" as="geometry" />
        </mxCell>
        <mxCell id="xkTSmgE8WvzXra-B7ViK-4" value="" style="fontColor=#0066CC;verticalAlign=top;verticalLabelPosition=bottom;labelPosition=center;align=center;html=1;outlineConnect=0;fillColor=#CCCCCC;strokeColor=#4D4D4D;gradientColor=none;gradientDirection=north;strokeWidth=2;shape=mxgraph.networks.server_storage;fontSize=28;" vertex="1" parent="xkTSmgE8WvzXra-B7ViK-2">
          <mxGeometry x="38" y="8" width="77.5" height="77.5" as="geometry" />
        </mxCell>
        <mxCell id="xkTSmgE8WvzXra-B7ViK-5" value="" style="fontColor=#0066CC;verticalAlign=top;verticalLabelPosition=bottom;labelPosition=center;align=center;html=1;outlineConnect=0;fillColor=#CCCCCC;strokeColor=#4D4D4D;gradientColor=none;gradientDirection=north;strokeWidth=2;shape=mxgraph.networks.server;fontSize=28;" vertex="1" parent="xkTSmgE8WvzXra-B7ViK-2">
          <mxGeometry x="122.5" y="5.5" width="63" height="70" as="geometry" />
        </mxCell>
        <mxCell id="xkTSmgE8WvzXra-B7ViK-6" value="" style="group;fontSize=28;" vertex="1" connectable="0" parent="WIyWlLk6GJQsqaUBKTNV-1">
          <mxGeometry x="197" y="376" width="105" height="110" as="geometry" />
        </mxCell>
        <mxCell id="xkTSmgE8WvzXra-B7ViK-7" value="" style="group;fontSize=28;" vertex="1" connectable="0" parent="xkTSmgE8WvzXra-B7ViK-6">
          <mxGeometry width="105" height="110" as="geometry" />
        </mxCell>
        <mxCell id="xkTSmgE8WvzXra-B7ViK-8" value="" style="verticalLabelPosition=bottom;html=1;verticalAlign=top;align=center;strokeColor=none;fillColor=#4D4D4D;shape=mxgraph.azure.mobile;pointerEvents=1;shadow=0;fontSize=28;" vertex="1" parent="xkTSmgE8WvzXra-B7ViK-7">
          <mxGeometry x="44.25" y="17.11999999999989" width="20" height="37" as="geometry" />
        </mxCell>
        <mxCell id="xkTSmgE8WvzXra-B7ViK-9" value="" style="fontColor=#0066CC;verticalAlign=top;verticalLabelPosition=bottom;labelPosition=center;align=center;html=1;outlineConnect=0;fillColor=#4D4D4D;strokeColor=#4D4D4D;gradientColor=none;gradientDirection=north;strokeWidth=2;shape=mxgraph.networks.user_male;shadow=0;fontFamily=Times New Roman;fontSize=28;" vertex="1" parent="xkTSmgE8WvzXra-B7ViK-7">
          <mxGeometry width="28" height="70" as="geometry" />
        </mxCell>
        <mxCell id="xkTSmgE8WvzXra-B7ViK-10" value="&lt;span style=&quot;font-size: 22px;&quot;&gt;Task Offloading&lt;/span&gt;" style="text;html=1;resizable=0;autosize=1;align=center;verticalAlign=middle;points=[];fillColor=default;strokeColor=none;rounded=0;dashed=1;fontFamily=Times New Roman;fontColor=#000000;fontSize=22;" vertex="1" parent="WIyWlLk6GJQsqaUBKTNV-1">
          <mxGeometry x="310" y="382.7499999999999" width="160" height="30" as="geometry" />
        </mxCell>
        <mxCell id="xkTSmgE8WvzXra-B7ViK-11" style="edgeStyle=none;rounded=0;jumpStyle=arc;jumpSize=15;orthogonalLoop=1;jettySize=auto;html=1;fontFamily=Times New Roman;fontSize=28;fontColor=#000000;startArrow=none;startFill=0;endArrow=classicThin;endFill=1;targetPerimeterSpacing=7;strokeColor=#000000;strokeWidth=2;elbow=vertical;" edge="1" parent="WIyWlLk6GJQsqaUBKTNV-1">
          <mxGeometry relative="1" as="geometry">
            <mxPoint x="521" y="412" as="targetPoint" />
            <mxPoint x="271" y="412" as="sourcePoint" />
          </mxGeometry>
        </mxCell>
        <mxCell id="xkTSmgE8WvzXra-B7ViK-12" value="&lt;span style=&quot;font-size: 28px&quot;&gt;edge service &lt;i&gt;s&lt;/i&gt;&lt;/span&gt;" style="text;html=1;resizable=0;autosize=1;align=center;verticalAlign=middle;points=[];fillColor=none;strokeColor=none;rounded=0;dashed=1;fontFamily=Times New Roman;fontSize=28;" vertex="1" parent="WIyWlLk6GJQsqaUBKTNV-1">
          <mxGeometry x="548.75" y="429.5" width="170" height="40" as="geometry" />
        </mxCell>
        <mxCell id="xkTSmgE8WvzXra-B7ViK-13" value="user &lt;i&gt;u&lt;/i&gt;" style="text;html=1;resizable=0;autosize=1;align=center;verticalAlign=middle;points=[];fillColor=none;strokeColor=none;rounded=0;dashed=1;fontFamily=Times New Roman;fontSize=28;" vertex="1" parent="WIyWlLk6GJQsqaUBKTNV-1">
          <mxGeometry x="189.13" y="336" width="80" height="40" as="geometry" />
        </mxCell>
        <mxCell id="xkTSmgE8WvzXra-B7ViK-14" value="time&lt;i&gt; t&lt;/i&gt;" style="text;html=1;resizable=0;autosize=1;align=center;verticalAlign=middle;points=[];fillColor=#f5f5f5;strokeColor=#666666;rounded=0;dashed=1;fontFamily=Times New Roman;fontSize=28;fontColor=#4D4D4D;" vertex="1" parent="WIyWlLk6GJQsqaUBKTNV-1">
          <mxGeometry x="82" y="50" width="80" height="40" as="geometry" />
        </mxCell>
        <mxCell id="xkTSmgE8WvzXra-B7ViK-15" value="real location&lt;i&gt;&amp;nbsp;g&lt;/i&gt;" style="text;html=1;resizable=0;autosize=1;align=center;verticalAlign=middle;points=[];fillColor=none;strokeColor=none;rounded=0;dashed=1;fontFamily=Times New Roman;fontSize=28;" vertex="1" parent="WIyWlLk6GJQsqaUBKTNV-1">
          <mxGeometry x="136" y="442" width="180" height="40" as="geometry" />
        </mxCell>
        <mxCell id="xkTSmgE8WvzXra-B7ViK-16" value="&lt;font style=&quot;font-size: 28px&quot;&gt;Offloading Event&amp;nbsp;&lt;/font&gt;&lt;span&gt;\( O_u(t,s)=&amp;lt;u,s,t,g&amp;gt; \)&lt;/span&gt;&lt;span style=&quot;font-size: medium&quot;&gt;&lt;/span&gt;" style="text;html=1;resizable=0;autosize=1;align=center;verticalAlign=middle;points=[];fillColor=none;strokeColor=none;rounded=0;dashed=1;fontFamily=Times New Roman;fontSize=28;fontColor=#66CC00;" vertex="1" parent="WIyWlLk6GJQsqaUBKTNV-1">
          <mxGeometry x="136" y="500" width="467" height="42" as="geometry" />
        </mxCell>
        <mxCell id="xkTSmgE8WvzXra-B7ViK-17" value="" style="shape=image;html=1;verticalAlign=top;verticalLabelPosition=bottom;labelBackgroundColor=#ffffff;imageAspect=0;aspect=fixed;image=https://cdn0.iconfinder.com/data/icons/kameleon-free-pack/110/Hacker-128.png;fontSize=27;fontColor=#CC0000;" vertex="1" parent="WIyWlLk6GJQsqaUBKTNV-1">
          <mxGeometry x="568.75" y="110" width="130" height="130" as="geometry" />
        </mxCell>
        <mxCell id="xkTSmgE8WvzXra-B7ViK-18" style="edgeStyle=none;rounded=0;jumpStyle=arc;jumpSize=15;orthogonalLoop=1;jettySize=auto;html=1;fontFamily=Times New Roman;fontSize=28;fontColor=#000000;startArrow=none;startFill=0;endArrow=classicThin;endFill=1;targetPerimeterSpacing=7;strokeColor=#000000;strokeWidth=2;elbow=vertical;entryX=0.5;entryY=1;entryDx=0;entryDy=0;" edge="1" parent="WIyWlLk6GJQsqaUBKTNV-1" target="xkTSmgE8WvzXra-B7ViK-17">
          <mxGeometry relative="1" as="geometry">
            <mxPoint x="718.75" y="239.99999999999977" as="targetPoint" />
            <mxPoint x="634" y="340" as="sourcePoint" />
          </mxGeometry>
        </mxCell>
        <mxCell id="xkTSmgE8WvzXra-B7ViK-19" value="&lt;span style=&quot;color: rgb(0, 0, 0); font-size: 22px; font-style: normal; font-weight: 400; letter-spacing: normal; text-indent: 0px; text-transform: none; word-spacing: 0px; background-color: rgb(255, 255, 255); display: inline; float: none;&quot;&gt;Inference&lt;/span&gt;" style="text;whiteSpace=wrap;html=1;fontSize=22;fontColor=#000000;align=center;fontFamily=Times New Roman;" vertex="1" parent="WIyWlLk6GJQsqaUBKTNV-1">
          <mxGeometry x="399" y="134" width="100" height="40" as="geometry" />
        </mxCell>
        <mxCell id="xkTSmgE8WvzXra-B7ViK-20" style="edgeStyle=none;rounded=0;jumpStyle=arc;jumpSize=15;orthogonalLoop=1;jettySize=auto;html=1;fontFamily=Times New Roman;fontSize=28;fontColor=#000000;startArrow=none;startFill=0;endArrow=classicThin;endFill=1;targetPerimeterSpacing=7;strokeColor=#000000;strokeWidth=2;elbow=vertical;exitX=0;exitY=0.5;exitDx=0;exitDy=0;" edge="1" parent="WIyWlLk6GJQsqaUBKTNV-1" target="xkTSmgE8WvzXra-B7ViK-21">
          <mxGeometry relative="1" as="geometry">
            <mxPoint x="335.1300000000001" y="175.00000000000023" as="targetPoint" />
            <mxPoint x="567.75" y="175.00000000000023" as="sourcePoint" />
          </mxGeometry>
        </mxCell>
        <mxCell id="xkTSmgE8WvzXra-B7ViK-21" value="inferred location&lt;br style=&quot;font-size: 28px&quot;&gt;\( \hat g \)" style="text;html=1;align=center;verticalAlign=middle;resizable=0;points=[];autosize=1;strokeColor=none;fillColor=none;fontSize=28;fontFamily=Times New Roman;fontColor=#000000;" vertex="1" parent="WIyWlLk6GJQsqaUBKTNV-1">
          <mxGeometry x="115" y="140" width="200" height="70" as="geometry" />
        </mxCell>
        <mxCell id="xkTSmgE8WvzXra-B7ViK-22" value="Inference Event \( d(t)=&amp;lt;t,\hat g&amp;gt; \)" style="text;html=1;resizable=0;autosize=1;align=center;verticalAlign=middle;points=[];fillColor=none;strokeColor=none;rounded=0;fontFamily=Times New Roman;fontSize=28;fontColor=#CC0000;" vertex="1" parent="WIyWlLk6GJQsqaUBKTNV-1">
          <mxGeometry x="115" y="230" width="409" height="38" as="geometry" />
        </mxCell>
        <mxCell id="xkTSmgE8WvzXra-B7ViK-40" value="&lt;span style=&quot;font-size: 22px&quot;&gt;Request&lt;br&gt;&lt;/span&gt;" style="text;html=1;resizable=0;autosize=1;align=center;verticalAlign=middle;points=[];fillColor=default;strokeColor=none;rounded=0;dashed=1;fontFamily=Times New Roman;fontColor=#000000;fontSize=22;" vertex="1" parent="WIyWlLk6GJQsqaUBKTNV-1">
          <mxGeometry x="72" y="375.9999999999999" width="90" height="30" as="geometry" />
        </mxCell>
        <mxCell id="xkTSmgE8WvzXra-B7ViK-45" style="edgeStyle=orthogonalEdgeStyle;rounded=0;orthogonalLoop=1;jettySize=auto;html=1;fontSize=22;fontColor=#000099;startArrow=none;startFill=0;strokeWidth=2;" edge="1" parent="WIyWlLk6GJQsqaUBKTNV-1">
          <mxGeometry relative="1" as="geometry">
            <mxPoint x="180" y="410" as="sourcePoint" />
            <mxPoint x="-40" y="184" as="targetPoint" />
            <Array as="points">
              <mxPoint x="70" y="410" />
              <mxPoint x="70" y="184" />
            </Array>
          </mxGeometry>
        </mxCell>
      </root>
    </mxGraphModel>
  </diagram>
</mxfile>
